<?xml version="1.0" encoding="UTF-8"?>
<svg width="28" height="30" viewBox="0 0 28 30" fill="none" xmlns="http://www.w3.org/2000/svg">
  <path fill-rule="evenodd" clip-rule="evenodd" d="M13.0434 1.30464C12.323 1.30464 11.7391 1.88861 11.7391 2.60897V3.9133H11.0869C7.48519 3.9133 4.56523 6.83273 4.56523 10.4347V14.348C4.56523 15.3102 4.26158 16.3987 3.77925 17.4977C3.30219 18.5847 2.68538 19.6037 2.14105 20.4052C1.15035 21.8641 1.76374 24.1698 3.79001 24.5352C5.11495 24.7742 6.98741 25.0585 9.19115 25.2427C9.18851 25.3064 9.18718 25.3704 9.18718 25.4348C9.18718 27.9561 11.231 30 13.7523 30C16.2736 30 18.3175 27.9561 18.3175 25.4348C18.3175 25.3673 18.3161 25.3 18.3132 25.233C20.4678 25.0487 22.299 24.77 23.6011 24.5352C25.6274 24.1698 26.2408 21.8641 25.2501 20.4052C24.7057 19.6037 24.0889 18.5847 23.6119 17.4977C23.1296 16.3987 22.8259 15.3102 22.8259 14.348V10.4347C22.8259 6.83273 19.9059 3.9133 16.3042 3.9133H15.6521V2.60897C15.6521 1.88861 15.0681 1.30464 14.3477 1.30464H13.0434ZM13.6956 25.4348C14.3625 25.4348 15.0158 25.4215 15.6517 25.3977C15.662 26.4467 14.8096 27.3346 13.7523 27.3346C12.6974 27.3346 11.8438 26.4493 11.8528 25.4017C12.4529 25.4231 13.0683 25.4348 13.6956 25.4348ZM11.0869 6.52197C8.9257 6.52197 7.17389 8.27367 7.17389 10.4347V14.348C7.17389 15.8133 6.72454 17.2779 6.16799 18.5461C5.60616 19.8262 4.89822 20.9885 4.29916 21.8707C4.28584 21.8903 4.27963 21.9091 4.27753 21.9279C4.27565 21.9447 4.27724 21.9603 4.28048 21.9729C6.34489 22.344 9.78316 22.8262 13.6956 22.8262C17.6079 22.8262 21.0463 22.344 23.1106 21.9729C23.1139 21.9603 23.1155 21.9447 23.1136 21.9279C23.1114 21.9091 23.1053 21.8903 23.092 21.8707C22.4929 20.9885 21.7849 19.8262 21.2231 18.5461C20.6666 17.2779 20.2172 15.8133 20.2172 14.348V10.4347C20.2172 8.27367 18.4654 6.52197 16.3042 6.52197H11.0869Z" fill="white"/>
  <path fill-rule="evenodd" clip-rule="evenodd" d="M18.9519 0.988299C19.1245 0.297799 19.845 -0.133332 20.5351 0.0396268C20.6257 0.0624198 20.7115 0.0876773 20.8585 0.137128C21.0384 0.197613 21.2846 0.289204 21.5769 0.420445C22.1599 0.68222 22.9369 1.10656 23.7366 1.76516C25.3604 3.10243 27.0208 5.36283 27.3846 9.00088C27.4563 9.71768 26.9333 10.3569 26.2166 10.4285C25.4998 10.5002 24.8606 9.97724 24.789 9.26045C24.5006 6.37681 23.2261 4.7242 22.0783 3.77887C21.4921 3.29619 20.924 2.98684 20.5084 2.80026C20.3014 2.70731 20.135 2.64605 20.027 2.60973C19.9826 2.59481 19.938 2.58072 19.8929 2.56801C19.1989 2.3899 18.7778 1.68448 18.9519 0.988299Z" fill="white"/>
  <path fill-rule="evenodd" clip-rule="evenodd" d="M8.43932 0.988296C8.2646 0.28944 7.55644 -0.135461 6.85758 0.0392527C6.76652 0.0620746 6.68058 0.0874038 6.53272 0.137124C6.35287 0.197608 6.1066 0.2892 5.81429 0.420441C5.23125 0.682215 4.45431 1.10656 3.65457 1.76516C2.03075 3.10243 0.370374 5.36283 0.00656977 9.00086C-0.0651033 9.71765 0.457856 10.3568 1.17464 10.4285C1.89144 10.5002 2.53061 9.97722 2.6023 9.26044C2.89066 6.3768 4.16503 4.7242 5.31292 3.77887C5.89904 3.29619 6.46718 2.98684 6.88278 2.80025C7.08978 2.70731 7.25621 2.64604 7.36422 2.60973C7.40859 2.59481 7.45323 2.58072 7.49828 2.568C8.19237 2.3899 8.61337 1.68447 8.43932 0.988296Z" fill="white"/>
</svg>
